<svg width="266" height="32" viewBox="0 0 266 32" fill="none" xmlns="http://www.w3.org/2000/svg">
<g clip-path="url(#clip0_3_2)">
<path d="M23.9415 26H19.8067C19.4688 26 19.2198 25.9289 19.0597 25.7866C18.9175 25.6265 18.8463 25.3776 18.8463 25.0397V7.75347C18.8463 7.41557 18.9175 7.17548 19.0597 7.03321C19.2198 6.87315 19.4688 6.79312 19.8067 6.79312H23.9415C24.2794 6.79312 24.5195 6.87315 24.6618 7.03321C24.8218 7.17548 24.9018 7.41557 24.9018 7.75347V13.889H25.9689L28.7165 7.67344C28.841 7.35332 29.01 7.13102 29.2234 7.00653C29.4368 6.86426 29.7124 6.79312 30.0503 6.79312H34.1585C34.4608 6.79312 34.6653 6.87315 34.772 7.03321C34.8787 7.17548 34.8699 7.38889 34.7454 7.67344L32.0244 13.889C33.0203 13.9423 33.8117 14.298 34.3986 14.956C35.0032 15.5963 35.3056 16.4499 35.3056 17.517V25.0397C35.3056 25.3776 35.2255 25.6265 35.0655 25.7866C34.9232 25.9289 34.6831 26 34.3452 26H30.2371C29.8992 26 29.6502 25.9289 29.4901 25.7866C29.3479 25.6265 29.2767 25.3776 29.2767 25.0397V19.8378C29.2767 19.5532 29.2056 19.3309 29.0633 19.1709C28.9211 19.0108 28.7076 18.9308 28.4231 18.9308H24.9018V25.0397C24.9018 25.3776 24.8218 25.6265 24.6618 25.7866C24.5195 25.9289 24.2794 26 23.9415 26ZM39.2828 26C38.9449 26 38.6959 25.9289 38.5359 25.7866C38.3936 25.6265 38.3225 25.3776 38.3225 25.0397V21.8652C38.3225 21.5273 38.3936 21.2872 38.5359 21.1449C38.6959 20.9849 38.9449 20.9048 39.2828 20.9048H41.9238V11.9416H39.2828C38.9449 11.9416 38.6959 11.8705 38.5359 11.7282C38.3936 11.5682 38.3225 11.3192 38.3225 10.9813V7.75347C38.3225 7.41557 38.3936 7.17548 38.5359 7.03321C38.6959 6.87315 38.9449 6.79312 39.2828 6.79312H50.6469C50.9848 6.79312 51.2249 6.87315 51.3672 7.03321C51.5272 7.17548 51.6072 7.41557 51.6072 7.75347V10.9813C51.6072 11.3192 51.5272 11.5682 51.3672 11.7282C51.2249 11.8705 50.9848 11.9416 50.6469 11.9416H48.0593V20.9048H50.6469C50.9848 20.9048 51.2249 20.9849 51.3672 21.1449C51.5272 21.2872 51.6072 21.5273 51.6072 21.8652V25.0397C51.6072 25.3776 51.5272 25.6265 51.3672 25.7866C51.2249 25.9289 50.9848 26 50.6469 26H39.2828ZM69.4395 26H55.8613C55.5234 26 55.2744 25.9289 55.1143 25.7866C54.9721 25.6265 54.9009 25.3776 54.9009 25.0397V7.75347C54.9009 7.41557 54.9721 7.17548 55.1143 7.03321C55.2744 6.87315 55.5234 6.79312 55.8613 6.79312H59.9961C60.334 6.79312 60.5741 6.87315 60.7163 7.03321C60.8764 7.17548 60.9564 7.41557 60.9564 7.75347V20.9582H64.6111V16.6366C64.6111 16.2987 64.6822 16.0587 64.8245 15.9164C64.9845 15.7563 65.2335 15.6763 65.5714 15.6763H69.4395C69.7774 15.6763 70.0174 15.7563 70.1597 15.9164C70.3198 16.0587 70.3998 16.2987 70.3998 16.6366V25.0397C70.3998 25.3776 70.3198 25.6265 70.1597 25.7866C70.0174 25.9289 69.7774 26 69.4395 26ZM87.9878 26H74.4096C74.0717 26 73.8227 25.9289 73.6626 25.7866C73.5204 25.6265 73.4492 25.3776 73.4492 25.0397V7.75347C73.4492 7.41557 73.5204 7.17548 73.6626 7.03321C73.8227 6.87315 74.0717 6.79312 74.4096 6.79312H78.5444C78.8823 6.79312 79.1224 6.87315 79.2646 7.03321C79.4247 7.17548 79.5047 7.41557 79.5047 7.75347V20.9582H83.1594V16.6366C83.1594 16.2987 83.2305 16.0587 83.3728 15.9164C83.5328 15.7563 83.7818 15.6763 84.1197 15.6763H87.9878C88.3257 15.6763 88.5658 15.7563 88.708 15.9164C88.8681 16.0587 88.9481 16.2987 88.9481 16.6366V25.0397C88.9481 25.3776 88.8681 25.6265 88.708 25.7866C88.5658 25.9289 88.3257 26 87.9878 26ZM110.507 26H103.998C101.775 26 100.121 25.5554 99.0359 24.6662C97.9688 23.777 97.4353 22.4076 97.4353 20.5581V12.2617C97.4353 10.4122 97.9688 9.04282 99.0359 8.15361C100.121 7.24662 101.775 6.79312 103.998 6.79312H110.507C110.845 6.79312 111.085 6.87315 111.227 7.03321C111.387 7.17548 111.467 7.41557 111.467 7.75347V10.9813C111.467 11.3192 111.387 11.5682 111.227 11.7282C111.085 11.8705 110.845 11.9416 110.507 11.9416H105.145C104.593 11.9416 104.184 12.0572 103.918 12.2884C103.651 12.5018 103.517 12.8308 103.517 13.2754V19.6244C103.517 20.069 103.651 20.398 103.918 20.6114C104.184 20.807 104.593 20.9048 105.145 20.9048H110.507C110.845 20.9048 111.085 20.9849 111.227 21.1449C111.387 21.2872 111.467 21.5273 111.467 21.8652V25.0397C111.467 25.3776 111.387 25.6265 111.227 25.7866C111.085 25.9289 110.845 26 110.507 26ZM129.018 26H115.44C115.102 26 114.853 25.9289 114.693 25.7866C114.551 25.6265 114.48 25.3776 114.48 25.0397V7.75347C114.48 7.41557 114.551 7.17548 114.693 7.03321C114.853 6.87315 115.102 6.79312 115.44 6.79312H119.575C119.913 6.79312 120.153 6.87315 120.295 7.03321C120.455 7.17548 120.535 7.41557 120.535 7.75347V20.9582H124.19V16.6366C124.19 16.2987 124.261 16.0587 124.403 15.9164C124.563 15.7563 124.812 15.6763 125.15 15.6763H129.018C129.356 15.6763 129.596 15.7563 129.738 15.9164C129.898 16.0587 129.978 16.2987 129.978 16.6366V25.0397C129.978 25.3776 129.898 25.6265 129.738 25.7866C129.596 25.9289 129.356 26 129.018 26ZM139.99 12.3951L138.737 16.4499H142.925L141.671 12.3951C141.6 12.2351 141.52 12.1195 141.431 12.0483C141.36 11.9772 141.271 11.9416 141.164 11.9416H140.497C140.39 11.9416 140.293 11.9772 140.204 12.0483C140.133 12.1195 140.061 12.2351 139.99 12.3951ZM138.47 25.0397C138.47 25.3776 138.39 25.6265 138.23 25.7866C138.087 25.9289 137.847 26 137.509 26H133.588C133.25 26 133.001 25.9289 132.841 25.7866C132.699 25.6265 132.628 25.3776 132.628 25.0397V17.9971C132.628 17.4636 132.708 16.8501 132.868 16.1565C133.046 15.4629 133.312 14.6537 133.668 13.7289L135.989 7.67344C136.096 7.37111 136.256 7.1488 136.469 7.00653C136.7 6.86426 136.994 6.79312 137.349 6.79312H144.525C144.863 6.79312 145.139 6.86426 145.352 7.00653C145.583 7.1488 145.752 7.37111 145.859 7.67344L148.18 13.7289C148.536 14.6537 148.794 15.4629 148.954 16.1565C149.131 16.8501 149.22 17.4636 149.22 17.9971V25.0397C149.22 25.3776 149.14 25.6265 148.98 25.7866C148.838 25.9289 148.598 26 148.26 26H144.232C143.876 26 143.609 25.9289 143.432 25.7866C143.272 25.6265 143.191 25.3776 143.191 25.0397V21.305H138.47V25.0397ZM161.424 26H152.994C152.656 26 152.407 25.9289 152.247 25.7866C152.105 25.6265 152.034 25.3776 152.034 25.0397V21.9185C152.034 21.5806 152.105 21.3406 152.247 21.1983C152.407 21.0382 152.656 20.9582 152.994 20.9582H160.17C160.401 20.9582 160.57 20.8871 160.677 20.7448C160.801 20.5847 160.864 20.398 160.864 20.1846C160.864 19.8823 160.801 19.66 160.677 19.5177C160.57 19.3754 160.401 19.2954 160.17 19.2776L156.169 18.7174C154.924 18.5396 153.919 18.1305 153.154 17.4903C152.407 16.8501 152.034 15.783 152.034 14.2891V11.4881C152.034 9.97648 152.523 8.82051 153.501 8.02023C154.479 7.20216 155.831 6.79312 157.556 6.79312H165.025C165.363 6.79312 165.603 6.87315 165.745 7.03321C165.905 7.17548 165.985 7.41557 165.985 7.75347V10.9279C165.985 11.2658 165.905 11.5148 165.745 11.6749C165.603 11.8171 165.363 11.8883 165.025 11.8883H158.81C158.578 11.8883 158.401 11.9683 158.276 12.1284C158.152 12.2706 158.089 12.4574 158.089 12.6886C158.089 12.9198 158.152 13.1154 158.276 13.2754C158.401 13.4355 158.578 13.5244 158.81 13.5422L162.784 14.0757C164.029 14.2536 165.034 14.6626 165.799 15.3028C166.563 15.9431 166.946 17.0101 166.946 18.504V21.305C166.946 22.8166 166.448 23.9815 165.452 24.7996C164.474 25.5999 163.131 26 161.424 26ZM178.644 26H170.214C169.876 26 169.627 25.9289 169.467 25.7866C169.325 25.6265 169.254 25.3776 169.254 25.0397V21.9185C169.254 21.5806 169.325 21.3406 169.467 21.1983C169.627 21.0382 169.876 20.9582 170.214 20.9582H177.39C177.621 20.9582 177.79 20.8871 177.897 20.7448C178.021 20.5847 178.083 20.398 178.083 20.1846C178.083 19.8823 178.021 19.66 177.897 19.5177C177.79 19.3754 177.621 19.2954 177.39 19.2776L173.388 18.7174C172.143 18.5396 171.139 18.1305 170.374 17.4903C169.627 16.8501 169.254 15.783 169.254 14.2891V11.4881C169.254 9.97648 169.743 8.82051 170.721 8.02023C171.699 7.20216 173.05 6.79312 174.776 6.79312H182.245C182.583 6.79312 182.823 6.87315 182.965 7.03321C183.125 7.17548 183.205 7.41557 183.205 7.75347V10.9279C183.205 11.2658 183.125 11.5148 182.965 11.6749C182.823 11.8171 182.583 11.8883 182.245 11.8883H176.029C175.798 11.8883 175.62 11.9683 175.496 12.1284C175.371 12.2706 175.309 12.4574 175.309 12.6886C175.309 12.9198 175.371 13.1154 175.496 13.2754C175.62 13.4355 175.798 13.5244 176.029 13.5422L180.004 14.0757C181.249 14.2536 182.254 14.6626 183.018 15.3028C183.783 15.9431 184.166 17.0101 184.166 18.504V21.305C184.166 22.8166 183.668 23.9815 182.672 24.7996C181.694 25.5999 180.351 26 178.644 26ZM193.112 11.5948V15.0094H195.113C195.576 15.0094 195.887 14.8938 196.047 14.6626C196.207 14.4136 196.287 14.1113 196.287 13.7556V12.8486C196.287 12.4929 196.207 12.1995 196.047 11.9683C195.887 11.7193 195.576 11.5948 195.113 11.5948H193.112ZM192.152 26H188.044C187.706 26 187.457 25.9289 187.297 25.7866C187.155 25.6265 187.084 25.3776 187.084 25.0397V7.75347C187.084 7.41557 187.155 7.17548 187.297 7.03321C187.457 6.87315 187.706 6.79312 188.044 6.79312H196.927C198.919 6.79312 200.288 7.21105 201.035 8.0469C201.8 8.86497 202.182 9.93202 202.182 11.248V12.4752C202.182 13.2221 202.067 13.8623 201.836 14.3958C201.622 14.9116 201.24 15.2851 200.689 15.5162C201.649 15.6229 202.422 16.0142 203.009 16.69C203.614 17.3658 203.916 18.2639 203.916 19.3843V25.0397C203.916 25.3776 203.836 25.6265 203.676 25.7866C203.534 25.9289 203.294 26 202.956 26H198.821C198.483 26 198.234 25.9289 198.074 25.7866C197.932 25.6265 197.861 25.3776 197.861 25.0397V20.9582C197.861 20.5669 197.781 20.2824 197.621 20.1046C197.479 19.9089 197.221 19.8111 196.847 19.8111H193.112V25.0397C193.112 25.3776 193.032 25.6265 192.872 25.7866C192.73 25.9289 192.49 26 192.152 26ZM223.051 20.9582C223.051 21.7763 222.926 22.5232 222.677 23.199C222.446 23.857 222.019 24.4261 221.397 24.9063C220.792 25.3687 219.947 25.7332 218.863 26C217.795 26.2668 216.435 26.4001 214.781 26.4001C213.127 26.4001 211.758 26.2668 210.673 26C209.588 25.7332 208.734 25.3687 208.112 24.9063C207.507 24.4261 207.081 23.857 206.832 23.199C206.6 22.5232 206.485 21.7763 206.485 20.9582V11.8616C206.485 11.0435 206.6 10.3055 206.832 9.64748C207.081 8.97168 207.507 8.39369 208.112 7.91352C208.734 7.43335 209.588 7.05988 210.673 6.79312C211.758 6.52636 213.127 6.39298 214.781 6.39298C216.435 6.39298 217.795 6.52636 218.863 6.79312C219.947 7.05988 220.792 7.43335 221.397 7.91352C222.019 8.39369 222.446 8.97168 222.677 9.64748C222.926 10.3055 223.051 11.0435 223.051 11.8616V20.9582ZM212.54 19.9979C212.54 20.3535 212.674 20.6559 212.94 20.9048C213.207 21.136 213.821 21.2516 214.781 21.2516C215.741 21.2516 216.355 21.136 216.622 20.9048C216.889 20.6559 217.022 20.3535 217.022 19.9979V12.8219C217.022 12.484 216.889 12.1995 216.622 11.9683C216.355 11.7193 215.741 11.5948 214.781 11.5948C213.821 11.5948 213.207 11.7193 212.94 11.9683C212.674 12.1995 212.54 12.484 212.54 12.8219V19.9979ZM242.719 20.9582C242.719 21.7763 242.595 22.5232 242.346 23.199C242.115 23.857 241.688 24.4261 241.065 24.9063C240.461 25.3687 239.616 25.7332 238.531 26C237.464 26.2668 236.104 26.4001 234.45 26.4001C232.796 26.4001 231.426 26.2668 230.341 26C229.257 25.7332 228.403 25.3687 227.781 24.9063C227.176 24.4261 226.749 23.857 226.5 23.199C226.269 22.5232 226.153 21.7763 226.153 20.9582V11.8616C226.153 11.0435 226.269 10.3055 226.5 9.64748C226.749 8.97168 227.176 8.39369 227.781 7.91352C228.403 7.43335 229.257 7.05988 230.341 6.79312C231.426 6.52636 232.796 6.39298 234.45 6.39298C236.104 6.39298 237.464 6.52636 238.531 6.79312C239.616 7.05988 240.461 7.43335 241.065 7.91352C241.688 8.39369 242.115 8.97168 242.346 9.64748C242.595 10.3055 242.719 11.0435 242.719 11.8616V20.9582ZM232.209 19.9979C232.209 20.3535 232.342 20.6559 232.609 20.9048C232.876 21.136 233.489 21.2516 234.45 21.2516C235.41 21.2516 236.023 21.136 236.29 20.9048C236.557 20.6559 236.69 20.3535 236.69 19.9979V12.8219C236.69 12.484 236.557 12.1995 236.29 11.9683C236.023 11.7193 235.41 11.5948 234.45 11.5948C233.489 11.5948 232.876 11.7193 232.609 11.9683C232.342 12.1995 232.209 12.484 232.209 12.8219V19.9979ZM251.05 26H247.076C246.738 26 246.489 25.9289 246.329 25.7866C246.186 25.6265 246.115 25.3776 246.115 25.0397V7.75347C246.115 7.41557 246.186 7.17548 246.329 7.03321C246.489 6.87315 246.738 6.79312 247.076 6.79312H251.37C251.655 6.79312 251.886 6.85537 252.064 6.97985C252.26 7.10434 252.437 7.30886 252.598 7.59341L254.998 11.9416C255.087 12.1017 255.158 12.2173 255.212 12.2884C255.283 12.3596 255.372 12.3951 255.479 12.3951H255.719C255.825 12.3951 255.905 12.3596 255.959 12.2884C256.03 12.2173 256.11 12.1017 256.199 11.9416L258.573 7.59341C258.733 7.30886 258.902 7.10434 259.08 6.97985C259.275 6.85537 259.516 6.79312 259.8 6.79312H264.122C264.46 6.79312 264.7 6.87315 264.842 7.03321C265.002 7.17548 265.082 7.41557 265.082 7.75347V25.0397C265.082 25.3776 265.002 25.6265 264.842 25.7866C264.7 25.9289 264.46 26 264.122 26H260.014C259.676 26 259.427 25.9289 259.267 25.7866C259.124 25.6265 259.053 25.3776 259.053 25.0397V15.6496L257.479 18.5573C257.319 18.8597 257.124 19.082 256.892 19.2242C256.679 19.3487 256.403 19.411 256.065 19.411H254.998C254.661 19.411 254.376 19.3487 254.145 19.2242C253.931 19.082 253.745 18.8597 253.585 18.5573L252.011 15.6496V25.0397C252.011 25.3776 251.931 25.6265 251.771 25.7866C251.628 25.9289 251.388 26 251.05 26Z" fill="url(#paint0_linear_3_2)"/>
<path fill-rule="evenodd" clip-rule="evenodd" d="M7.10626 12.4685H9.6773C11.9091 12.4685 13.5696 12.9149 14.6587 13.8076C15.73 14.7003 16.2656 16.0752 16.2656 17.932V26.2612C16.2656 28.1181 15.73 29.4929 14.6587 30.3856C13.5696 31.2962 11.9091 31.7515 9.6773 31.7515H3.14253C2.80329 31.7515 2.56225 31.6711 2.41942 31.5104C2.25873 31.3676 2.17838 31.1266 2.17838 30.7873V27.5467C2.17838 27.2075 2.25873 26.9575 2.41942 26.7968C2.56225 26.654 2.80329 26.5826 3.14253 26.5826H8.52568C9.07917 26.5826 9.48983 26.4665 9.75764 26.2344C10.0255 26.0201 10.1594 25.6898 10.1594 25.2435V19.475H7.58834C5.35651 19.475 3.69604 19.0286 2.60691 18.1359C1.53564 17.2432 1 15.8684 1 14.0115V5.68236C1 3.82548 1.53564 2.45068 2.60691 1.55795C3.69604 0.647369 5.35651 0.192078 7.58834 0.192078H14.1231C14.4623 0.192078 14.7034 0.272423 14.8462 0.433114C15.0069 0.575951 15.0873 0.816988 15.0873 1.15622V4.39683C15.0873 4.73607 15.0069 4.98603 14.8462 5.14672C14.7034 5.28956 14.4623 5.36098 14.1231 5.36098H8.73996C8.18646 5.36098 7.77581 5.47703 7.50799 5.70914C7.24017 5.92339 7.10626 6.2537 7.10626 6.70007V12.4685Z" fill="#5FCF80"/>
</g>
<defs>
<linearGradient id="paint0_linear_3_2" x1="17.0057" y1="7.05013" x2="266.999" y2="25.5469" gradientUnits="userSpaceOnUse">
<stop stop-color="#5FCF80"/>
<stop offset="1" stop-color="#5FCF80"/>
</linearGradient>
<clipPath id="clip0_3_2">
<rect width="266" height="32" fill="white"/>
</clipPath>
</defs>
</svg>
